<svg xmlns="http://www.w3.org/2000/svg" xmlns:xlink="http://www.w3.org/1999/xlink" aria-hidden="true" role="img" preserveAspectRatio="xMidYMid meet" viewBox="0 0 1024 1024" class="github-logo"><path d="M512,0C229.2,0,0,229.2,0,512c0,227.6,147.2,420.4,350.4,489.6c25.6,4.8,34.4-10.8,34.4-24c0-11.2-0.4-43.6-0.4-63.2c-145.6,31.6-176.8-70.4-176.8-70.4c-23.6-59.6-57.6-75.2-57.6-75.2c-47.2-32.4,3.6-31.6,3.6-31.6c52,3.6,79.2,53.6,79.2,53.6c46.4,80,121.6,56.8,151.2,43.6c4.8-33.6,18.4-56.8,33.6-69.6c-115.2-13.2-236.8-57.6-236.8-257.6c0-56.8,20.8-103.2,54.4-139.6c-5.6-13.6-23.2-68,5.6-141.6c0,0,43.2-13.6,140.8,54.4c40.8-11.2,83.2-16.8,125.6-16.8c42.4,0,84,5.6,124.8,16.8c97.6-68,141.6-54.4,141.6-54.4c28.8,73.6,11.2,128,5.6,141.6c33.6,36.4,54.4,82.8,54.4,139.6c0,200-121.6,244.4-236.8,257.6c16.8,14.4,32,41.6,32,80.8c0,58.4-0.4,105.6-0.4,119.2c0,13.6,8.8,28.8,34.4,24c203.2-69.2,350.4-262,350.4-489.6C1024,229.2,794.8,0,512,0z"/></svg>